# xmcd
#
# Track frame offsets:
#	150
#	18430
#	44560
#	60687
#	70567
#	85005
#	108187
#	128077
#
# Disc length: 2081 seconds
#
# Revision: 0
# Processed by: cddbd v1.5.2PL0 Copyright (c) Steve Scherf et al.
# Submitted via: audiograbber 1.83.01
#
DISCID=5f081f08
DTITLE=Jorma Kaukonen - Magic
DYEAR=1987
DGENRE=Blues
TTITLE0=Walkin' Blues
TTITLE1=Winnin' Boy Blues
TTITLE2=I'll Be Alright Some Day
TTITLE3=Embryonic Journey
TTITLE4=Candyman
TTITLE5=Roads and Roads &
TTITLE6=Good Shepherd
TTITLE7=Mann's Fate
EXTD=
EXTT0=Robert Johnson\n
EXTT1=Jelly Roll Morton\n
EXTT2=Rev. Gary Davis\n
EXTT3=Jorma Kaukonen\n
EXTT4=Rev. Gary Davis\n
EXTT5=Jorma Kaukonen\n
EXTT6=(Trad.) Arr. Jorma Kaukonen\n
EXTT7=Jorma Kaukonen\n
PLAYORDER=
